<svg width="57" height="64" viewBox="0 0 57 64" fill="none" xmlns="http://www.w3.org/2000/svg">
<path d="M56.3077 32.7484C56.3077 51.0064 45.1269 64 28.6154 64C12.7846 64 0 49.7032 0 32C0 14.2968 12.7846 0 28.6154 0C34.3969 0 39.4903 1.7787 43.7835 4.86778C46.2176 6.61913 46.208 10.0901 44.1658 12.2858C41.9251 14.695 38.1179 14.5431 35.1328 13.1595C24.7463 8.34501 10.8808 16.6125 10.8808 32C10.8808 43.1613 18.8538 52.2065 28.6154 52.2065C34.7921 52.2065 38.8635 49.5071 41.3979 46.2884C44.2384 42.6809 40.7558 38.4129 36.1642 38.4129H34.1186C31.0793 38.4129 28.6154 35.949 28.6154 32.9097C28.6154 29.8703 31.0793 27.4065 34.1186 27.4065H50.4904C53.5842 27.4065 56.3077 29.6546 56.3077 32.7484Z" fill="#FF0000" fill-opacity="0.86"/>
</svg>
