<svg width="184" height="166" viewBox="0 0 184 166" fill="none" xmlns="http://www.w3.org/2000/svg">
<path d="M91.5923 0C41.0528 0 0.0922852 34.4969 0.0922852 77.0714C0.0922852 95.45 7.74111 112.272 20.4653 125.5C15.9976 144.175 1.05732 160.812 0.878613 160.998C0.0922852 161.85 -0.122168 163.11 0.34248 164.221C0.807129 165.333 1.80791 166 2.95166 166C26.6487 166 44.4126 154.217 53.2052 146.954C64.8929 151.512 77.8673 154.143 91.5923 154.143C142.132 154.143 183.092 119.646 183.092 77.0714C183.092 34.4969 142.132 0 91.5923 0ZM45.8423 88.9286C39.5159 88.9286 34.4048 83.6299 34.4048 77.0714C34.4048 70.5129 39.5159 65.2143 45.8423 65.2143C52.1687 65.2143 57.2798 70.5129 57.2798 77.0714C57.2798 83.6299 52.1687 88.9286 45.8423 88.9286ZM91.5923 88.9286C85.2659 88.9286 80.1548 83.6299 80.1548 77.0714C80.1548 70.5129 85.2659 65.2143 91.5923 65.2143C97.9187 65.2143 103.03 70.5129 103.03 77.0714C103.03 83.6299 97.9187 88.9286 91.5923 88.9286ZM137.342 88.9286C131.016 88.9286 125.905 83.6299 125.905 77.0714C125.905 70.5129 131.016 65.2143 137.342 65.2143C143.669 65.2143 148.78 70.5129 148.78 77.0714C148.78 83.6299 143.669 88.9286 137.342 88.9286Z" fill="#430CE8"/>
</svg>
